# xmcd
# 
# Track frame offsets:
#     150
#     28493
#     46327
#     76661
#     88228
#     102696
#     120468
#     136315
#     149981
#     169269
#     187172
#     206410
#     234146
#     258623
#     288407
#     311905
# 
# Disc length: 4683
# 
# Revision: 7
# Processed by: cddbd v1.5.2PL0 Copyright (c) Steve Scherf et al.
# Submitted via: BonkEnc v1.0.15
# 
DISCID=f7124910
DTITLE=Oscar Peterson and Ben Webster - Platinum - Reunion Blues
DYEAR=1959
DGENRE=Jazz
TTITLE0=The touch of your lips
TTITLE1=When your lover has gone
TTITLE2=Bye bye Blackbird
TTITLE3=How deep is the ocean
TTITLE4=In the wee small hours
TTITLE5=Sunday
TTITLE6=I'll wind
TTITLE7=Tenderly
TTITLE8=Time on my hands
TTITLE9=Satisfaction
TTITLE10=Dream of you
TTITLE11=Someday my
TTITLE12=Time for love
TTITLE13=Reunion blues
TTITLE14=When I fall in love
TTITLE15=Red top
EXTD=
EXTT0=
EXTT1=
EXTT2=
EXTT3=
EXTT4=
EXTT5=
EXTT6=
EXTT7=
EXTT8=
EXTT9=
EXTT10=
EXTT11=
EXTT12=
EXTT13=
EXTT14=
EXTT15=
PLAYORDER=
